<svg width="96" height="30" viewBox="0 0 96 30" fill="none" xmlns="http://www.w3.org/2000/svg">
<path d="M84 4.5C84 6.98528 81.9853 9 79.5 9C77.0147 9 75 6.98528 75 4.5C75 2.01472 77.0147 0 79.5 0C81.9853 0 84 2.01472 84 4.5Z" fill="#27BEFF"/>
<rect x="79" y="4" width="5" height="5" fill="#27BEFF"/>
<path d="M87 8.5C87 10.9853 89.0147 13 91.5 13C93.9853 13 96 10.9853 96 8.5C96 6.01472 93.9853 4 91.5 4C89.0147 4 87 6.01472 87 8.5Z" fill="#CE5347"/>
<rect width="5" height="5" transform="matrix(-1 0 0 1 92 8)" fill="#CE5347"/>
<path d="M4.864 24.112C4.11733 24.112 3.44533 23.984 2.848 23.728C2.25067 23.4613 1.78133 23.088 1.44 22.608C1.09867 22.128 0.928 21.568 0.928 20.928H2.88C2.92267 21.408 3.10933 21.8027 3.44 22.112C3.78133 22.4213 4.256 22.576 4.864 22.576C5.49333 22.576 5.984 22.4267 6.336 22.128C6.688 21.8187 6.864 21.424 6.864 20.944C6.864 20.5707 6.752 20.2667 6.528 20.032C6.31467 19.7973 6.04267 19.616 5.712 19.488C5.392 19.36 4.944 19.2213 4.368 19.072C3.64267 18.88 3.05067 18.688 2.592 18.496C2.144 18.2933 1.76 17.984 1.44 17.568C1.12 17.152 0.96 16.5973 0.96 15.904C0.96 15.264 1.12 14.704 1.44 14.224C1.76 13.744 2.208 13.376 2.784 13.12C3.36 12.864 4.02667 12.736 4.784 12.736C5.86133 12.736 6.74133 13.008 7.424 13.552C8.11733 14.0853 8.50133 14.8213 8.576 15.76H6.56C6.528 15.3547 6.336 15.008 5.984 14.72C5.632 14.432 5.168 14.288 4.592 14.288C4.06933 14.288 3.64267 14.4213 3.312 14.688C2.98133 14.9547 2.816 15.3387 2.816 15.84C2.816 16.1813 2.91733 16.464 3.12 16.688C3.33333 16.9013 3.6 17.072 3.92 17.2C4.24 17.328 4.67733 17.4667 5.232 17.616C5.968 17.8187 6.56533 18.0213 7.024 18.224C7.49333 18.4267 7.888 18.7413 8.208 19.168C8.53867 19.584 8.704 20.144 8.704 20.848C8.704 21.4133 8.54933 21.9467 8.24 22.448C7.94133 22.9493 7.49867 23.3547 6.912 23.664C6.336 23.9627 5.65333 24.112 4.864 24.112ZM12.6803 16.48C12.9896 16.0747 13.4109 15.7333 13.9443 15.456C14.4776 15.1787 15.0803 15.04 15.7523 15.04C16.5203 15.04 17.2189 15.232 17.8483 15.616C18.4883 15.9893 18.9896 16.5173 19.3523 17.2C19.7149 17.8827 19.8963 18.6667 19.8963 19.552C19.8963 20.4373 19.7149 21.232 19.3523 21.936C18.9896 22.6293 18.4883 23.1733 17.8483 23.568C17.2189 23.952 16.5203 24.144 15.7523 24.144C15.0803 24.144 14.4829 24.0107 13.9603 23.744C13.4376 23.4667 13.0109 23.1253 12.6803 22.72V28.192H10.8563V15.184H12.6803V16.48ZM18.0403 19.552C18.0403 18.944 17.9123 18.4213 17.6562 17.984C17.4109 17.536 17.0803 17.2 16.6643 16.976C16.2589 16.7413 15.8216 16.624 15.3523 16.624C14.8936 16.624 14.4563 16.7413 14.0403 16.976C13.6349 17.2107 13.3043 17.552 13.0483 18C12.8029 18.448 12.6803 18.976 12.6803 19.584C12.6803 20.192 12.8029 20.7253 13.0483 21.184C13.3043 21.632 13.6349 21.9733 14.0403 22.208C14.4563 22.4427 14.8936 22.56 15.3523 22.56C15.8216 22.56 16.2589 22.4427 16.6643 22.208C17.0803 21.9627 17.4109 21.6107 17.6562 21.152C17.9123 20.6933 18.0403 20.16 18.0403 19.552ZM23.524 16.464C23.7907 16.016 24.1427 15.6693 24.58 15.424C25.028 15.168 25.556 15.04 26.164 15.04V16.928H25.7C24.9853 16.928 24.4413 17.1093 24.068 17.472C23.7053 17.8347 23.524 18.464 23.524 19.36V24H21.7V15.184H23.524V16.464ZM28.7686 14.016C28.438 14.016 28.1606 13.904 27.9366 13.68C27.7126 13.456 27.6006 13.1787 27.6006 12.848C27.6006 12.5173 27.7126 12.24 27.9366 12.016C28.1606 11.792 28.438 11.68 28.7686 11.68C29.0886 11.68 29.3606 11.792 29.5846 12.016C29.8086 12.24 29.9206 12.5173 29.9206 12.848C29.9206 13.1787 29.8086 13.456 29.5846 13.68C29.3606 13.904 29.0886 14.016 28.7686 14.016ZM29.6646 15.184V24H27.8406V15.184H29.6646ZM36.5074 15.04C37.2007 15.04 37.8194 15.184 38.3634 15.472C38.918 15.76 39.35 16.1867 39.6594 16.752C39.9687 17.3173 40.1234 18 40.1234 18.8V24H38.3154V19.072C38.3154 18.2827 38.118 17.68 37.7234 17.264C37.3287 16.8373 36.79 16.624 36.1074 16.624C35.4247 16.624 34.8807 16.8373 34.4754 17.264C34.0807 17.68 33.8834 18.2827 33.8834 19.072V24H32.0594V15.184H33.8834V16.192C34.182 15.8293 34.5607 15.5467 35.0194 15.344C35.4887 15.1413 35.9847 15.04 36.5074 15.04ZM46.002 15.04C46.6847 15.04 47.2873 15.1787 47.81 15.456C48.3433 15.7227 48.7593 16.0587 49.058 16.464V15.184H50.898V24.144C50.898 24.9547 50.7273 25.6747 50.386 26.304C50.0447 26.944 49.5487 27.4453 48.898 27.808C48.258 28.1707 47.49 28.352 46.594 28.352C45.3993 28.352 44.4073 28.0693 43.618 27.504C42.8287 26.9493 42.3807 26.192 42.274 25.232H44.082C44.2207 25.6907 44.514 26.0587 44.962 26.336C45.4207 26.624 45.9647 26.768 46.594 26.768C47.33 26.768 47.922 26.544 48.37 26.096C48.8287 25.648 49.058 24.9973 49.058 24.144V22.672C48.7487 23.088 48.3273 23.44 47.794 23.728C47.2713 24.0053 46.674 24.144 46.002 24.144C45.234 24.144 44.53 23.952 43.89 23.568C43.2607 23.1733 42.7593 22.6293 42.386 21.936C42.0233 21.232 41.842 20.4373 41.842 19.552C41.842 18.6667 42.0233 17.8827 42.386 17.2C42.7593 16.5173 43.2607 15.9893 43.89 15.616C44.53 15.232 45.234 15.04 46.002 15.04ZM49.058 19.584C49.058 18.976 48.93 18.448 48.674 18C48.4287 17.552 48.1033 17.2107 47.698 16.976C47.2927 16.7413 46.8553 16.624 46.386 16.624C45.9167 16.624 45.4793 16.7413 45.074 16.976C44.6687 17.2 44.338 17.536 44.082 17.984C43.8367 18.4213 43.714 18.944 43.714 19.552C43.714 20.16 43.8367 20.6933 44.082 21.152C44.338 21.6107 44.6687 21.9627 45.074 22.208C45.49 22.4427 45.9273 22.56 46.386 22.56C46.8553 22.56 47.2927 22.4427 47.698 22.208C48.1033 21.9733 48.4287 21.632 48.674 21.184C48.93 20.7253 49.058 20.192 49.058 19.584ZM59.274 22.528H63.034V24H57.45V12.88H59.274V22.528ZM63.9514 19.552C63.9514 18.6667 64.1327 17.8827 64.4954 17.2C64.8687 16.5173 65.37 15.9893 65.9994 15.616C66.6394 15.232 67.3434 15.04 68.1114 15.04C68.8047 15.04 69.4074 15.1787 69.9194 15.456C70.442 15.7227 70.858 16.0587 71.1674 16.464V15.184H73.0074V24H71.1674V22.688C70.858 23.104 70.4367 23.4507 69.9034 23.728C69.37 24.0053 68.762 24.144 68.0794 24.144C67.322 24.144 66.6287 23.952 65.9994 23.568C65.37 23.1733 64.8687 22.6293 64.4954 21.936C64.1327 21.232 63.9514 20.4373 63.9514 19.552ZM71.1674 19.584C71.1674 18.976 71.0394 18.448 70.7834 18C70.538 17.552 70.2127 17.2107 69.8074 16.976C69.402 16.7413 68.9647 16.624 68.4954 16.624C68.026 16.624 67.5887 16.7413 67.1834 16.976C66.778 17.2 66.4474 17.536 66.1914 17.984C65.946 18.4213 65.8234 18.944 65.8234 19.552C65.8234 20.16 65.946 20.6933 66.1914 21.152C66.4474 21.6107 66.778 21.9627 67.1834 22.208C67.5994 22.4427 68.0367 22.56 68.4954 22.56C68.9647 22.56 69.402 22.4427 69.8074 22.208C70.2127 21.9733 70.538 21.632 70.7834 21.184C71.0394 20.7253 71.1674 20.192 71.1674 19.584ZM77.2271 16.496C77.5365 16.0693 77.9578 15.7227 78.4911 15.456C79.0351 15.1787 79.6378 15.04 80.2991 15.04C81.0778 15.04 81.7818 15.2267 82.4111 15.6C83.0405 15.9733 83.5365 16.5067 83.8991 17.2C84.2618 17.8827 84.4431 18.6667 84.4431 19.552C84.4431 20.4373 84.2618 21.232 83.8991 21.936C83.5365 22.6293 83.0351 23.1733 82.3951 23.568C81.7658 23.952 81.0671 24.144 80.2991 24.144C79.6165 24.144 79.0085 24.0107 78.4751 23.744C77.9525 23.4773 77.5365 23.136 77.2271 22.72V24H75.4031V12.16H77.2271V16.496ZM82.5871 19.552C82.5871 18.944 82.4591 18.4213 82.2031 17.984C81.9578 17.536 81.6271 17.2 81.2111 16.976C80.8058 16.7413 80.3685 16.624 79.8991 16.624C79.4405 16.624 79.0031 16.7413 78.5871 16.976C78.1818 17.2107 77.8511 17.552 77.5951 18C77.3498 18.448 77.2271 18.976 77.2271 19.584C77.2271 20.192 77.3498 20.7253 77.5951 21.184C77.8511 21.632 78.1818 21.9733 78.5871 22.208C79.0031 22.4427 79.4405 22.56 79.8991 22.56C80.3685 22.56 80.8058 22.4427 81.2111 22.208C81.6271 21.9627 81.9578 21.6107 82.2031 21.152C82.4591 20.6933 82.5871 20.16 82.5871 19.552Z" fill="white"/>
</svg>
